<svg xmlns="http://www.w3.org/2000/svg" xmlns:xlink="http://www.w3.org/1999/xlink" version="1.1" width="940" height="788" viewBox="0 0 940 788" xml:space="preserve">
<desc>Created with Fabric.js 3.5.0</desc>
<defs>
</defs>
<rect x="0" y="0" width="100%" height="100%" fill="rgba(255,255,255,0)"/>
<g transform="matrix(1 0 0 1 470 394)" id="925965">
<g style="" vector-effect="non-scaling-stroke">
		<g transform="matrix(1 0 0 1 0.2 -113.9008)" id="Capa_1">
<path style="stroke: none; stroke-width: 1; stroke-dasharray: none; stroke-linecap: butt; stroke-dashoffset: 0; stroke-linejoin: miter; stroke-miterlimit: 4; is-custom-font: none; font-file-url: none; fill: rgb(255,255,255); fill-rule: nonzero; opacity: 1;" transform=" translate(-245.2, -131.0992)" d="M 136.5 131.1 c 0 5.4 4.3 10.1 10.1 10.1 h 197.2 c 5.4 0 10.1 -4.3 10.1 -10.1 s -4.3 -10.1 -10.1 -10.1 H 146.2 C 140.8 120.9 136.5 125.6 136.5 131.1 z" stroke-linecap="round"/>
</g>
		<g transform="matrix(1 0 0 1 -0.2 -50.6)" id="Capa_1">
<path style="stroke: none; stroke-width: 1; stroke-dasharray: none; stroke-linecap: butt; stroke-dashoffset: 0; stroke-linejoin: miter; stroke-miterlimit: 4; is-custom-font: none; font-file-url: none; fill: rgb(255,255,255); fill-rule: nonzero; opacity: 1;" transform=" translate(-244.8, -194.4)" d="M 343.8 184.3 H 146.2 c -5.4 0 -10.1 4.3 -10.1 10.1 s 4.3 10.1 10.1 10.1 h 197.2 c 5.4 0 10.1 -4.3 10.1 -10.1 S 349.2 184.3 343.8 184.3 z" stroke-linecap="round"/>
</g>
		<g transform="matrix(1 0 0 1 -0.2 12.8)" id="Capa_1">
<path style="stroke: none; stroke-width: 1; stroke-dasharray: none; stroke-linecap: butt; stroke-dashoffset: 0; stroke-linejoin: miter; stroke-miterlimit: 4; is-custom-font: none; font-file-url: none; fill: rgb(255,255,255); fill-rule: nonzero; opacity: 1;" transform=" translate(-244.8, -257.8)" d="M 343.8 247.7 H 146.2 c -5.4 0 -10.1 4.3 -10.1 10.1 c 0 5.4 4.3 10.1 10.1 10.1 h 197.2 c 5.4 0 10.1 -4.3 10.1 -10.1 S 349.2 247.7 343.8 247.7 z" stroke-linecap="round"/>
</g>
		<g transform="matrix(1 0 0 1 -0.2 75.8)" id="Capa_1">
<path style="stroke: none; stroke-width: 1; stroke-dasharray: none; stroke-linecap: butt; stroke-dashoffset: 0; stroke-linejoin: miter; stroke-miterlimit: 4; is-custom-font: none; font-file-url: none; fill: rgb(255,255,255); fill-rule: nonzero; opacity: 1;" transform=" translate(-244.8, -320.8)" d="M 343.8 310.7 H 146.2 c -5.4 0 -10.1 4.3 -10.1 10.1 c 0 5.4 4.3 10.1 10.1 10.1 h 197.2 c 5.4 0 10.1 -4.3 10.1 -10.1 C 353.5 315.4 349.2 310.7 343.8 310.7 z" stroke-linecap="round"/>
</g>
		<g transform="matrix(1 0 0 1 -0.2 139.2)" id="Capa_1">
<path style="stroke: none; stroke-width: 1; stroke-dasharray: none; stroke-linecap: butt; stroke-dashoffset: 0; stroke-linejoin: miter; stroke-miterlimit: 4; is-custom-font: none; font-file-url: none; fill: rgb(255,255,255); fill-rule: nonzero; opacity: 1;" transform=" translate(-244.8, -384.2)" d="M 343.8 374.1 H 146.2 c -5.4 0 -10.1 4.3 -10.1 10.1 c 0 5.4 4.3 10.1 10.1 10.1 h 197.2 c 5.4 0 10.1 -4.3 10.1 -10.1 C 353.5 378.8 349.2 374.1 343.8 374.1 z" stroke-linecap="round"/>
</g>
		<g transform="matrix(1 0 0 1 0 20.05)" id="Capa_1">
<polygon style="stroke: none; stroke-width: 1; stroke-dasharray: none; stroke-linecap: butt; stroke-dashoffset: 0; stroke-linejoin: miter; stroke-miterlimit: 4; is-custom-font: none; font-file-url: none; fill: rgb(255,255,255); fill-rule: nonzero; opacity: 1;" points="105,-224.95 115.9,-193.85 140,-193.85 140,182.15 -140,182.15 -140,-193.85 -115.9,-193.85 -105,-224.95 -171.9,-224.95 -171.9,224.95 171.9,224.95 171.9,-224.95 "/>
</g>
		<g transform="matrix(1 0 0 1 0 -209.05)" id="Capa_1">
<path style="stroke: none; stroke-width: 1; stroke-dasharray: none; stroke-linecap: butt; stroke-dashoffset: 0; stroke-linejoin: miter; stroke-miterlimit: 4; is-custom-font: none; font-file-url: none; fill: rgb(255,255,255); fill-rule: nonzero; opacity: 1;" transform=" translate(-245, -35.95)" d="M 324.7 27.6 h -52.1 C 272.6 12.4 260.2 0 245 0 c -15.2 0 -27.6 12.4 -27.6 27.6 h -52.1 l -15.2 44.3 h 189.8 L 324.7 27.6 z" stroke-linecap="round"/>
</g>
</g>
</g>
</svg>