<svg xmlns="http://www.w3.org/2000/svg" xmlns:xlink="http://www.w3.org/1999/xlink" version="1.1" width="1000" height="1000" viewBox="0 0 1000 1000" xml:space="preserve">
<desc>Created with Fabric.js 3.5.0</desc>
<defs>
</defs>
<rect x="0" y="0" width="100%" height="100%" fill="#ffffff"/>
<g transform="matrix(-1.2914 0 0 1.2914 574.4521 578.1028)" id="884473">
<path style="stroke: none; stroke-width: 1; stroke-dasharray: none; stroke-linecap: butt; stroke-dashoffset: 0; stroke-linejoin: miter; stroke-miterlimit: 4; is-custom-font: none; font-file-url: none; fill: rgb(201,27,40); fill-rule: nonzero; opacity: 1;" vector-effect="non-scaling-stroke" transform=" translate(-256, -256)" d="M 512 352 v 128 c 0 17.6 -14.4 32 -32 32 H 32 c -17.6 0 -32 -14.4 -32 -32 v -448 c 0 -17.6 14.4 -32 32 -32 l 128 0 c 17.6 0 32 14.4 32 31.1 v 64 H 112 c -8.799 0 -16 7.199 -16 16 s 7.201 16 16 16 L 192 128 v 64 H 112 C 103.2 192 96 199.2 96 208 S 103.2 224 112 224 H 192 v 64 H 112 C 103.2 288 96 295.2 96 304 S 103.2 320 112 320 H 192 v 80 C 192 408.8 199.2 416 208 416 S 224 408.8 224 400 V 320 h 64 v 80 c 0 8.799 7.199 16 16 16 s 16 -7.201 16 -16 V 320 h 64 v 80 c 0 8.799 7.199 16 16 16 s 16 -7.201 16 -16 V 320 h 64 C 497.6 320 512 334.4 512 352 z" stroke-linecap="round"/>
</g>
<g transform="matrix(-1.1433 0 0 -1.1433 356.2075 357.2238)" id="996844">
<path style="stroke: none; stroke-width: 1; stroke-dasharray: none; stroke-linecap: butt; stroke-dashoffset: 0; stroke-linejoin: miter; stroke-miterlimit: 4; is-custom-font: none; font-file-url: none; fill: rgb(201,27,40); fill-rule: nonzero; opacity: 1;" vector-effect="non-scaling-stroke" transform=" translate(-256, -255.98)" d="M 512 145.1 c 0 8.202 -3.111 16.4 -9.334 22.63 L 167.7 502.7 C 161.5 508.9 153.3 512 145.1 512 s -16.41 -3.111 -22.63 -9.334 L 9.334 389.5 C 3.111 383.3 0 375.1 0 366.9 s 3.111 -16.4 9.334 -22.63 l 54.33 -54.33 l 56.57 56.57 c 3.111 3.111 7.212 4.672 11.31 4.672 c 9.06 0 15.99 -7.32 15.99 -15.99 c 0 -4.101 -1.561 -8.203 -4.673 -11.31 L 86.29 267.3 l 45.25 -45.26 l 56.57 56.57 c 3.11 3.111 7.212 4.673 11.31 4.673 c 8.687 0 15.99 -6.956 15.99 -15.99 c 0 -4.101 -1.562 -8.203 -4.672 -11.31 L 154.2 199.4 l 45.25 -45.26 L 256 210.7 c 3.112 3.111 7.213 4.672 11.31 4.672 c 9.059 0 15.99 -7.324 15.99 -15.99 c 0 -4.102 -1.562 -8.203 -4.673 -11.31 l -56.57 -56.57 l 45.26 -45.25 l 56.57 56.57 c 3.111 3.111 7.212 4.672 11.31 4.672 c 9.06 0 15.99 -7.32 15.99 -15.99 c 0 -4.101 -1.561 -8.203 -4.673 -11.31 l -56.57 -56.57 l 54.33 -54.33 c 6.223 -6.223 14.43 -9.334 22.63 -9.334 s 16.4 3.111 22.63 9.334 l 113.1 113.1 C 508.9 128.7 512 136.9 512 145.1 z" stroke-linecap="round"/>
</g>
</svg>