<svg xmlns="http://www.w3.org/2000/svg" xmlns:xlink="http://www.w3.org/1999/xlink" version="1.1" width="1000" height="1000" viewBox="0 0 1000 1000" xml:space="preserve">
<desc>Created with Fabric.js 3.5.0</desc>
<defs>
</defs>
<rect x="0" y="0" width="100%" height="100%" fill="rgba(255,255,255,0)"/>
<g transform="matrix(-9.7585 0 0 -9.7585 594.5291 608.6765)" id="476351">
<path style="stroke: none; stroke-width: 1; stroke-dasharray: none; stroke-linecap: butt; stroke-dashoffset: 0; stroke-linejoin: miter; stroke-miterlimit: 4; is-custom-font: none; font-file-url: none; fill: rgb(201,27,40); fill-rule: nonzero; opacity: 1;" vector-effect="non-scaling-stroke" transform=" translate(-30, -30)" d="M 19 0 h -2 H 0 v 17 v 2 v 41 h 16 v -5 H 8 c -0.553 0 -1 -0.447 -1 -1 s 0.447 -1 1 -1 h 8 v -4 h -5 c -0.553 0 -1 -0.447 -1 -1 s 0.447 -1 1 -1 h 5 v -4 H 8 c -0.553 0 -1 -0.447 -1 -1 s 0.447 -1 1 -1 h 8 v -4 h -5 c -0.553 0 -1 -0.447 -1 -1 s 0.447 -1 1 -1 h 5 v -4 H 8 c -0.553 0 -1 -0.447 -1 -1 s 0.447 -1 1 -1 h 8 v -4 h -5 c -0.553 0 -1 -0.447 -1 -1 s 0.447 -1 1 -1 h 5 v -4 h 3 v -3 h 4 v -5 c 0 -0.553 0.447 -1 1 -1 s 1 0.447 1 1 v 5 h 4 V 8 c 0 -0.553 0.447 -1 1 -1 s 1 0.447 1 1 v 8 h 4 v -5 c 0 -0.553 0.447 -1 1 -1 s 1 0.447 1 1 v 5 h 4 V 8 c 0 -0.553 0.447 -1 1 -1 s 1 0.447 1 1 v 8 h 4 v -5 c 0 -0.553 0.447 -1 1 -1 s 1 0.447 1 1 v 5 h 4 V 8 c 0 -0.553 0.447 -1 1 -1 s 1 0.447 1 1 v 8 h 5 V 0 H 19 z" stroke-linecap="round"/>
</g>
<g transform="matrix(-1.4277 0 0 1.4277 451.5231 473.7193)" id="321237">
<path style="stroke: none; stroke-width: 1; stroke-dasharray: none; stroke-linecap: butt; stroke-dashoffset: 0; stroke-linejoin: miter; stroke-miterlimit: 4; is-custom-font: none; font-file-url: none; fill: rgb(201,27,40); fill-rule: nonzero; opacity: 1;" vector-effect="non-scaling-stroke" transform=" translate(-188.262, -188.2625)" d="M 67.626 0.003 l 308.898 308.881 l -67.638 67.638 l -8.959 -8.953 l 46.692 -46.717 c 1.862 -1.838 1.862 -4.804 0 -6.642 c -1.831 -1.825 -4.804 -1.85 -6.635 0 l -46.712 46.699 l -14.531 -14.514 l 30.084 -30.084 c 1.838 -1.837 1.838 -4.804 0 -6.635 c -1.85 -1.855 -4.798 -1.855 -6.629 0 l -30.084 30.065 l -12.01 -12.009 l 30.084 -30.066 c 1.808 -1.832 1.808 -4.822 0 -6.653 c -1.861 -1.831 -4.828 -1.831 -6.678 0 l -30.071 30.065 l -11.493 -11.505 l 30.065 -30.06 c 1.85 -1.832 1.85 -4.805 0 -6.636 c -1.831 -1.855 -4.804 -1.855 -6.635 0 l -30.084 30.066 l -12.989 -13.024 l 46.693 -46.699 c 1.832 -1.85 1.832 -4.816 0 -6.653 c -1.849 -1.825 -4.797 -1.825 -6.652 0 l -46.693 46.717 l -9.002 -8.995 l 31.592 -31.573 c 1.831 -1.837 1.831 -4.804 -0.019 -6.653 c -1.813 -1.837 -4.779 -1.837 -6.635 0 l -31.579 31.586 l -12.016 -12.01 l 31.574 -31.598 c 1.855 -1.825 1.855 -4.798 0 -6.629 c -1.832 -1.861 -4.798 -1.861 -6.636 0 l -31.585 31.566 l -11.5 -11.499 l 31.591 -31.567 c 1.825 -1.855 1.825 -4.827 0 -6.658 c -1.861 -1.832 -4.825 -1.832 -6.656 0 l -31.588 31.572 l -13.15 -13.15 l 46.711 -46.714 c 1.837 -1.832 1.819 -4.801 -0.019 -6.636 c -1.837 -1.831 -4.807 -1.831 -6.641 -0.018 l -46.711 46.721 l -14.514 -14.514 l 30.063 -30.084 c 1.837 -1.834 1.837 -4.804 -0.018 -6.635 c -1.807 -1.853 -4.783 -1.832 -6.629 0 l -30.075 30.06 L 110.19 177.85 l 30.078 -30.063 c 1.823 -1.831 1.823 -4.828 0 -6.641 c -1.837 -1.85 -4.812 -1.85 -6.647 -0.018 l -30.06 30.087 L 92.05 159.691 l 30.057 -30.062 c 1.849 -1.832 1.831 -4.801 0 -6.659 c -1.823 -1.832 -4.798 -1.832 -6.636 0 l -30.062 30.087 l -13.019 -13.004 l 46.714 -46.714 c 1.819 -1.832 1.819 -4.828 -0.006 -6.659 c -1.843 -1.832 -4.812 -1.832 -6.659 0 l -46.693 46.714 l -8.977 -8.998 l 31.567 -31.567 c 1.832 -1.831 1.832 -4.801 0 -6.635 c -1.844 -1.85 -4.816 -1.85 -6.66 0 l -31.582 31.57 l -11.977 -12.016 l 31.567 -31.57 c 1.846 -1.85 1.846 -4.819 0 -6.66 c -1.832 -1.832 -4.801 -1.832 -6.647 0 l -31.562 31.57 l -11.523 -11.5 l 31.583 -31.591 c 1.843 -1.811 1.843 -4.786 0 -6.636 c -1.841 -1.834 -4.816 -1.834 -6.647 0 L 13.294 80.954 L 0 67.641 L 67.626 0.003 z" stroke-linecap="round"/>
</g>
</svg>