<svg xmlns="http://www.w3.org/2000/svg" xmlns:xlink="http://www.w3.org/1999/xlink" version="1.1" width="1000" height="1000" viewBox="0 0 1000 1000" xml:space="preserve">
<desc>Created with Fabric.js 3.5.0</desc>
<defs>
</defs>
<rect x="0" y="0" width="100%" height="100%" fill="rgba(255,255,255,0)"/>
<g transform="matrix(1 0 0 -1 500 500)" id="474926">
<g style="" vector-effect="non-scaling-stroke">
		<g transform="matrix(1 0 0 1 0.0005 -44.1895)" id="Capa_1">
<path style="stroke: none; stroke-width: 1; stroke-dasharray: none; stroke-linecap: butt; stroke-dashoffset: 0; stroke-linejoin: miter; stroke-miterlimit: 4; is-custom-font: none; font-file-url: none; fill: rgb(201,27,40); fill-rule: nonzero; opacity: 1;" transform=" translate(-221.0005, -176.8105)" d="M 400.739 5.359 H 41.261 C 18.51 5.359 0 23.869 0 46.62 v 260.381 c 0 22.751 18.51 41.261 41.261 41.261 h 359.479 c 22.751 0 41.261 -18.51 41.261 -41.261 V 46.62 C 442 23.869 423.49 5.359 400.739 5.359 z M 422 307.001 c 0 11.724 -9.537 21.261 -21.261 21.261 H 41.261 c -11.724 0 -21.261 -9.537 -21.261 -21.261 V 46.62 c 0 -11.724 9.537 -21.261 21.261 -21.261 h 359.479 c 11.724 0 21.261 9.537 21.261 21.261 V 307.001 z" stroke-linecap="round"/>
</g>
		<g transform="matrix(1 0 0 1 -171.0655 -44.1895)" id="Capa_1">
<path style="stroke: none; stroke-width: 1; stroke-dasharray: none; stroke-linecap: butt; stroke-dashoffset: 0; stroke-linejoin: miter; stroke-miterlimit: 4; is-custom-font: none; font-file-url: none; fill: rgb(201,27,40); fill-rule: nonzero; opacity: 1;" transform=" translate(-49.9345, -176.8105)" d="M 49.934 157.737 c -10.517 0 -19.073 8.557 -19.073 19.073 c 0 10.518 8.557 19.074 19.073 19.074 c 10.518 0 19.074 -8.557 19.074 -19.074 C 69.008 166.294 60.451 157.737 49.934 157.737 z M 49.934 177.737 c -0.511 0 -0.926 -0.416 -0.926 -0.927 s 0.415 -0.926 0.926 -0.926 s 0.927 0.415 0.927 0.926 S 50.444 177.737 49.934 177.737 z" stroke-linecap="round"/>
</g>
		<g transform="matrix(1 0 0 1 -171.674 -84.272)" id="Capa_1">
<path style="stroke: none; stroke-width: 1; stroke-dasharray: none; stroke-linecap: butt; stroke-dashoffset: 0; stroke-linejoin: miter; stroke-miterlimit: 4; is-custom-font: none; font-file-url: none; fill: rgb(201,27,40); fill-rule: nonzero; opacity: 1;" transform=" translate(-49.326, -136.728)" d="M 40.252 146.728 H 58.4 c 5.522 0 10 -4.478 10 -10 s -4.478 -10 -10 -10 H 40.252 c -5.522 0 -10 4.478 -10 10 S 34.729 146.728 40.252 146.728 z" stroke-linecap="round"/>
</g>
		<g transform="matrix(1 0 0 1 -171.674 -115.282)" id="Capa_1">
<path style="stroke: none; stroke-width: 1; stroke-dasharray: none; stroke-linecap: butt; stroke-dashoffset: 0; stroke-linejoin: miter; stroke-miterlimit: 4; is-custom-font: none; font-file-url: none; fill: rgb(201,27,40); fill-rule: nonzero; opacity: 1;" transform=" translate(-49.326, -105.718)" d="M 40.252 115.718 H 58.4 c 5.522 0 10 -4.478 10 -10 s -4.478 -10 -10 -10 H 40.252 c -5.522 0 -10 4.478 -10 10 S 34.729 115.718 40.252 115.718 z" stroke-linecap="round"/>
</g>
		<g transform="matrix(1 0 0 1 -171.674 26.904)" id="Capa_1">
<path style="stroke: none; stroke-width: 1; stroke-dasharray: none; stroke-linecap: butt; stroke-dashoffset: 0; stroke-linejoin: miter; stroke-miterlimit: 4; is-custom-font: none; font-file-url: none; fill: rgb(201,27,40); fill-rule: nonzero; opacity: 1;" transform=" translate(-49.326, -247.904)" d="M 58.4 237.904 H 40.252 c -5.522 0 -10 4.478 -10 10 s 4.478 10 10 10 H 58.4 c 5.522 0 10 -4.478 10 -10 S 63.923 237.904 58.4 237.904 z" stroke-linecap="round"/>
</g>
		<g transform="matrix(1 0 0 1 -171.674 -4.105)" id="Capa_1">
<path style="stroke: none; stroke-width: 1; stroke-dasharray: none; stroke-linecap: butt; stroke-dashoffset: 0; stroke-linejoin: miter; stroke-miterlimit: 4; is-custom-font: none; font-file-url: none; fill: rgb(201,27,40); fill-rule: nonzero; opacity: 1;" transform=" translate(-49.326, -216.895)" d="M 58.4 206.895 H 40.252 c -5.522 0 -10 4.478 -10 10 s 4.478 10 10 10 H 58.4 c 5.522 0 10 -4.478 10 -10 S 63.923 206.895 58.4 206.895 z" stroke-linecap="round"/>
</g>
		<g transform="matrix(1 0 0 1 19.1575 -44.1895)" id="Capa_1">
<path style="stroke: none; stroke-width: 1; stroke-dasharray: none; stroke-linecap: butt; stroke-dashoffset: 0; stroke-linejoin: miter; stroke-miterlimit: 4; is-custom-font: none; font-file-url: none; fill: rgb(201,27,40); fill-rule: nonzero; opacity: 1;" transform=" translate(-240.1575, -176.8105)" d="M 391.663 45.696 H 88.652 c -5.522 0 -10 4.478 -10 10 v 242.229 c 0 5.522 4.478 10 10 10 h 303.011 c 5.522 0 10 -4.478 10 -10 V 55.696 C 401.663 50.174 397.186 45.696 391.663 45.696 z M 381.663 287.926 H 98.652 V 65.696 h 283.011 V 287.926 z" stroke-linecap="round"/>
</g>
		<g transform="matrix(1 0 0 1 0 185.4715)" id="Capa_1">
<path style="stroke: none; stroke-width: 1; stroke-dasharray: none; stroke-linecap: butt; stroke-dashoffset: 0; stroke-linejoin: miter; stroke-miterlimit: 4; is-custom-font: none; font-file-url: none; fill: rgb(201,27,40); fill-rule: nonzero; opacity: 1;" transform=" translate(-221, -406.4715)" d="M 378.69 383.646 h -9.706 c -1.719 -2.94 -4.887 -4.931 -8.535 -4.966 l -251.689 -2.377 c -0.02 0 -0.038 0.002 -0.058 0.002 c -0.012 0 -0.024 -0.002 -0.037 -0.002 c -0.056 0 -0.109 0.007 -0.165 0.008 c -0.287 0.003 -0.571 0.015 -0.849 0.043 c -0.014 0.001 -0.028 0.004 -0.042 0.006 c -0.306 0.032 -0.608 0.078 -0.906 0.138 c -0.08 0.016 -0.158 0.038 -0.237 0.055 c -0.213 0.049 -0.426 0.1 -0.636 0.163 c -0.155 0.046 -0.306 0.099 -0.457 0.152 c -0.092 0.032 -0.185 0.057 -0.276 0.092 l -42.96 16.411 c -1.705 0.651 -3.154 1.736 -4.243 3.1 h -7.41 c -5.522 0 -10 4.478 -10 10 s 4.478 10 10 10 h 7.411 c 1.089 1.363 2.538 2.448 4.242 3.099 l 42.96 16.411 c 0.084 0.032 0.172 0.055 0.257 0.085 c 0.166 0.058 0.332 0.116 0.501 0.166 c 0.141 0.042 0.284 0.075 0.427 0.11 c 0.161 0.039 0.32 0.081 0.484 0.112 c 0.176 0.034 0.354 0.057 0.531 0.081 c 0.135 0.018 0.268 0.042 0.405 0.056 c 0.319 0.031 0.641 0.049 0.963 0.049 c 0.031 0 0.063 0 0.095 0 l 251.689 -2.377 c 3.648 -0.035 6.816 -2.026 8.535 -4.966 h 9.706 c 12.586 0 22.826 -10.24 22.826 -22.826 S 391.276 383.646 378.69 383.646 z M 350.354 414.357 l -135.045 1.275 v -18.321 l 135.045 1.275 V 414.357 z M 118.665 396.399 l 76.645 0.724 v 18.699 l -76.645 0.724 V 396.399 z M 98.665 400.828 v 11.287 l -14.773 -5.644 L 98.665 400.828 z M 378.69 409.298 h -8.336 v -5.651 h 8.336 c 1.559 0 2.826 1.268 2.826 2.825 C 381.517 408.03 380.249 409.298 378.69 409.298 z" stroke-linecap="round"/>
</g>
</g>
</g>
</svg>